<!-- Generator: Adobe Illustrator 23.0.4, SVG Export Plug-In  -->
<svg version="1.1" xmlns="http://www.w3.org/2000/svg" xmlns:xlink="http://www.w3.org/1999/xlink" x="0px" y="0px" width="300px"
	 height="88px" viewBox="0 0 300 88" style="enable-background:new 0 0 300 88;" xml:space="preserve">
<style type="text/css">
	.st0{fill:#FFFFFF;}
	.st1{clip-path:url(#SVGID_2_);fill:#0F79BF;}
	.st2{fill:#0F79BF;}
	.st3{fill:#464238;}
	.st4{fill:none;stroke:#231F20;stroke-width:0.692;}
	.st5{clip-path:url(#SVGID_4_);fill:#0F79BF;}
</style>
<defs>
</defs>
<rect class="st0" width="300" height="88"/>
<g>
	<defs>
		<rect id="SVGID_1_" x="84.9" y="16.5" width="130.1" height="34"/>
	</defs>
	<clipPath id="SVGID_2_">
		<use xlink:href="#SVGID_1_"  style="overflow:visible;"/>
	</clipPath>
	<path class="st1" d="M90.5,20.8c-0.1,0-0.2,0.2-0.2,0.5v16.2c0,3,0.2,3.9,2.2,3.9c0.2,0,0.4,0,0.7,0c0.7,0,1,0.2,1,0.6
		c0,0.5-0.4,0.7-1.3,0.7c-1,0-2.2-0.2-3.5-0.2c-1.2,0-2.3,0.2-3.2,0.2c-0.9,0-1.3-0.2-1.3-0.7c0-0.4,0.3-0.6,0.9-0.6h0.4
		c2.1,0,2.3-1.1,2.3-4.4V19.7c0-1.4-0.1-1.7-1.2-1.9c-1.4-0.2-2.2,0-2.2-0.7c0-0.4,0.2-0.6,0.7-0.6h6.7c0.2,0,0.4,0,0.7,0.4l13.6,18
		c0,0,0.1,0,0.1,0c0.1,0,0.2-0.2,0.2-0.5v-13c0-1.2,0-2.2-0.2-2.8c-0.2-0.9-1.1-1-2.8-1c-0.5,0-0.9-0.2-0.9-0.6
		c0-0.4,0.4-0.6,1.3-0.6c1,0,2.2,0.1,3.5,0.1c1.3,0,2.4-0.2,3.1-0.2c0.7,0,1.1,0.3,1.1,0.7c0,0.4-0.2,0.5-0.7,0.5h-0.6
		c-1.9,0-2,1.2-2,4.2v20.9c0,0.5-0.4,1-0.8,1c-0.3,0-0.6-0.2-0.9-0.7L90.6,20.9C90.6,20.8,90.5,20.8,90.5,20.8"/>
</g>
<path class="st2" d="M117.5,46.3c-2.4,2.8-4.8,4.2-6.9,4.2c-1.8,0-2.9-1-2.9-2.7c0-1.2,1-2.2,2.3-2.2c0.6,0,1.2,0.3,1.7,1
	c0.6,0.7,0.9,1.6,1.8,1.6c1.7,0,2.8-2.6,2.8-7.7V19.8c0-1.5-0.2-1.7-1.3-1.9c-1.3-0.2-2.2,0-2.2-0.7c0-0.3,0.3-0.6,0.8-0.6
	c0.5,0,2.1,0.3,5,0.3c2.9,0,4.6-0.3,5.1-0.3c0.5,0,0.8,0.2,0.8,0.6c0,0.7-0.8,0.5-2.2,0.7c-1.2,0.2-1.3,0.5-1.3,1.9v17.5
	C120.9,40.9,119.8,43.6,117.5,46.3"/>
<path class="st2" d="M129.7,21.9c-0.2,0-0.2,0.2-0.3,0.8l-0.8,12.7c-0.1,1.2-0.1,1.9-0.1,2.3c0,2.7,0.4,3.7,2.3,3.7
	c0.2,0,0.4,0,0.7,0c0.7,0,1,0.2,1,0.6c0,0.4-0.4,0.7-1.3,0.7c-0.9,0-2-0.1-3.5-0.1c-1.3,0-2.4,0.1-3.2,0.1c-0.8,0-1.2-0.2-1.2-0.7
	c0-0.4,0.2-0.6,0.8-0.6c0.4,0,0.7,0,0.9,0c1.8,0,1.9-1.8,2.2-6.6l0.8-14.2v-0.8c0-1.4-0.2-1.7-1.3-1.9c-1.3-0.2-2.1,0-2.1-0.7
	c0-0.4,0.2-0.5,0.7-0.5h6.7c0.4,0,0.6,0,0.7,0.4l6.7,16.8c0.1,0.3,0.3,0.5,0.4,0.5c0.2,0,0.3-0.1,0.4-0.5l6.7-16.5
	c0.2-0.5,0.3-0.7,0.8-0.7h6.6c0.5,0,0.7,0.2,0.7,0.5c0,0.9-1.2,0.4-2.5,0.8c-0.7,0.2-0.9,0.5-0.9,1.7c0,0.3,0,0.6,0,1l0.5,18.2
	c0.1,1.7,0.2,2.2,1.7,2.5c1,0.2,1.9-0.1,1.9,0.7c0,0.4-0.4,0.7-1.1,0.7c-1,0-2.5-0.2-4.7-0.2c-2.3,0-3.9,0.2-4.9,0.2
	c-0.7,0-1.1-0.2-1.1-0.7c0-0.4,0.3-0.6,0.8-0.6c2.4,0,2.7-0.5,2.7-2.5v-1l-0.4-15.3c0-0.3-0.1-0.5-0.2-0.5c-0.1,0-0.2,0.2-0.3,0.4
	l-7.5,18.8c-0.2,0.4-0.5,0.6-0.8,0.6c-0.4,0-0.7-0.2-0.9-0.5l-7.6-18.9C130,22.1,129.9,21.9,129.7,21.9"/>
<path class="st3" d="M161.1,27c0.3,0.1,0.6,0.1,0.6,0.3c0,0.1-0.1,0.2-0.3,0.2c-0.1,0-0.6,0-1.3,0c-0.6,0-1.1,0-1.4,0
	c-0.3,0-0.5,0-0.5-0.2c0-0.2,0.2-0.1,0.5-0.2c0.5-0.1,0.5-0.4,0.5-0.9v-7.7c0-0.4,0-0.6-0.3-0.7c-0.3-0.1-0.6,0-0.6-0.3
	c0-0.1,0.1-0.2,0.3-0.2c0.1,0,0.6,0,1.4,0c0.5,0,0.9,0,1.4,0c0.3,0,0.4,0.1,0.4,0.2c0,0.2-0.2,0.2-0.5,0.2c-0.5,0.1-0.5,0.2-0.5,0.7
	v7.8C160.8,26.7,160.8,27,161.1,27"/>
<path class="st3" d="M163.4,21.6c0-0.3,0-0.4-0.3-0.5c-0.2,0-0.4,0-0.4-0.1c0-0.2,0.3-0.3,0.8-0.5c0.6-0.3,0.9-0.6,1-0.6
	c0.1,0,0.1,0.1,0.1,0.2v0.6c0,0.1,0,0.2,0,0.2c0,0,0,0.1,0.1,0.1c0.1,0,0.2-0.2,0.5-0.4c0.5-0.4,1-0.7,1.7-0.7c1.5,0,2,0.9,2,2.7
	v3.6c0,0.5,0,0.7,0.3,0.9c0.2,0.1,0.6,0,0.6,0.2c0,0.2-0.2,0.2-0.6,0.2c-0.2,0-0.5,0-0.9,0c-0.3,0-0.5,0-0.6,0c-0.1,0-0.3,0-0.6,0
	c-0.2,0-0.3,0-0.3-0.1c0-0.3,0.3-0.2,0.4-0.3c0.2-0.1,0.3-0.4,0.3-0.8v-3.9c0-1.1-0.3-1.7-1.2-1.7c-1.1,0-1.5,0.6-1.5,1.9v3.9
	c0,0.4,0.1,0.6,0.3,0.7c0.2,0,0.4,0,0.4,0.2c0,0.1-0.1,0.2-0.2,0.2c-0.1,0-0.4,0-1.1,0c-0.7,0-1.1,0-1.2,0c-0.2,0-0.3-0.1-0.3-0.2
	c0-0.2,0.1-0.2,0.4-0.3c0.2-0.1,0.3-0.3,0.3-0.7V21.6"/>
<path class="st3" d="M174.7,21.4c0,0.4,0,0.5-0.2,0.5c-0.3,0-0.3-0.3-0.5-0.7c-0.3-0.6-0.6-0.9-1.1-0.9c-0.7,0-1.2,0.5-1.2,1.1
	c0,0.2,0,0.4,0.2,0.6c0.4,0.6,1.3,0.8,2.2,1.4c0.7,0.5,1.1,1.2,1.1,2c0,1.4-1.1,2.4-2.8,2.4c-1.4,0-1.7-0.2-1.7-0.9v-1.1
	c0-0.4,0-0.6,0.2-0.6c0.2,0,0.3,0.1,0.4,0.4c0.4,1,0.6,1.7,1.5,1.7c0.7,0,1.2-0.5,1.2-1.3c0-0.5-0.2-1-0.6-1.3
	c-0.5-0.4-1.3-0.7-2.1-1.4c-0.4-0.3-0.6-0.8-0.6-1.3c0-1.2,1-2.1,2.6-2.1c1.1,0,1.6,0.1,1.6,0.5V21.4"/>
<path class="st3" d="M176.8,21.4c0-0.5,0-0.7-0.3-0.9c-0.2-0.1-0.6,0-0.6-0.2c0-0.2,0.2-0.2,0.6-0.2c0.1,0,0.3,0,0.5,0
	c0.1,0,0.3,0,0.7,0c0.3,0,0.4,0.1,0.4,0.4v4.9c0,1.1,0.3,1.7,1.2,1.7c1.1,0,1.5-0.6,1.5-1.9v-4c0-0.4-0.1-0.6-0.3-0.7
	c-0.2,0-0.4,0-0.4-0.2c0-0.1,0.1-0.2,0.2-0.2c0.1,0,0.3,0,0.4,0c0.3,0,0.6,0,1,0c0.4,0,0.5,0.1,0.5,0.4V26c0,0.3,0,0.4,0.3,0.5
	c0.2,0,0.4,0,0.4,0.1c0,0.2-0.3,0.3-0.8,0.5c-0.6,0.3-0.9,0.6-1,0.6c-0.1,0-0.1-0.1-0.1-0.2v-0.8c0,0-0.1-0.1-0.1-0.1
	c-0.1,0-0.2,0.2-0.5,0.4c-0.5,0.4-1,0.7-1.7,0.7c-1.5,0-2-0.9-2-2.6V21.4"/>
<path class="st3" d="M184.7,21.6c0-0.3,0-0.4-0.3-0.5c-0.2,0-0.4,0-0.4-0.1c0-0.2,0.3-0.3,0.8-0.5c0.6-0.3,0.9-0.6,1-0.6
	c0.1,0,0.1,0.1,0.1,0.2v1.1c0,0,0.1,0.1,0.1,0.1c0.1,0,0.2-0.2,0.5-0.6c0.4-0.5,0.8-0.7,1.2-0.7c0.6,0,1,0.4,1,1.1
	c0,0.6-0.3,0.9-0.7,0.9c-0.4,0-0.6-0.2-0.7-0.6c0-0.2,0-0.4-0.2-0.4c-0.6,0-1,0.9-1,2.4v3.1c0,0.4,0.1,0.6,0.3,0.7
	c0.2,0,0.4,0,0.4,0.2c0,0.1-0.1,0.2-0.2,0.2c-0.1,0-0.4,0-1.1,0c-0.7,0-1.1,0-1.2,0c-0.2,0-0.3-0.1-0.3-0.2c0-0.2,0.2-0.2,0.4-0.3
	c0.2-0.1,0.3-0.3,0.3-0.7V21.6"/>
<path class="st3" d="M192.7,21.5c0-0.8-0.1-1.2-0.6-1.2c-0.5,0-1.1,0.4-1.2,1.2c-0.2,0.7-0.2,1.3-1,1.3c-0.3,0-0.4-0.2-0.4-0.5
	c0-0.4,0.2-0.9,0.8-1.4c0.6-0.6,1.4-0.9,2.3-0.9c1.4,0,1.6,0.5,1.6,1.7v3.9c0,0.8,0,1.1,0.5,1.1c0.4,0,0.4-0.5,0.6-0.5
	c0.1,0,0.1,0.1,0.1,0.2c0,0.6-0.6,1.3-1.4,1.3c-0.4,0-0.8-0.2-0.9-0.4c-0.2-0.5-0.3-0.7-0.4-0.7c-0.2,0-0.3,0.3-0.7,0.6
	c-0.4,0.4-0.8,0.6-1.3,0.6c-0.7,0-1.2-0.5-1.2-1.4c0-1.3,1-2,2.7-3.3c0.5-0.4,0.5-0.5,0.5-1.2V21.5 M192.5,23.4
	c-0.2,0-0.5,0.3-0.9,0.8c-0.5,0.5-0.8,1.1-0.8,1.6c0,0.5,0.3,0.9,0.8,0.9c0.7,0,1.1-0.7,1.1-2.1v-0.4
	C192.7,23.6,192.7,23.4,192.5,23.4"/>
<path class="st3" d="M196.4,21.6c0-0.3,0-0.4-0.3-0.5c-0.2,0-0.4,0-0.4-0.1c0-0.2,0.3-0.3,0.8-0.5c0.6-0.3,0.9-0.6,1-0.6
	c0.1,0,0.1,0.1,0.1,0.2v0.6c0,0.1,0,0.2,0,0.2c0,0,0,0.1,0.1,0.1c0.1,0,0.2-0.2,0.5-0.4c0.5-0.4,1-0.7,1.7-0.7c1.5,0,2,0.9,2,2.7
	v3.6c0,0.5,0,0.7,0.3,0.9c0.2,0.1,0.6,0,0.6,0.2c0,0.2-0.2,0.2-0.6,0.2c-0.2,0-0.5,0-0.9,0c-0.3,0-0.5,0-0.6,0c-0.1,0-0.3,0-0.6,0
	c-0.2,0-0.3,0-0.3-0.1c0-0.3,0.3-0.2,0.4-0.3c0.2-0.1,0.3-0.4,0.3-0.8v-3.9c0-1.1-0.3-1.7-1.2-1.7c-1.1,0-1.5,0.6-1.5,1.9v3.9
	c0,0.4,0.1,0.6,0.3,0.7c0.2,0,0.4,0,0.4,0.2c0,0.1-0.1,0.2-0.2,0.2c-0.1,0-0.4,0-1.1,0c-0.7,0-1.1,0-1.2,0c-0.2,0-0.3-0.1-0.3-0.2
	c0-0.2,0.1-0.2,0.4-0.3c0.2-0.1,0.3-0.3,0.3-0.7V21.6"/>
<path class="st3" d="M208.3,21.6c0,0.5,0,0.6-0.3,0.6c-0.3,0-0.5-0.2-0.7-0.7c-0.3-0.7-0.4-1.2-1-1.2c-0.6,0-1.3,1.2-1.3,2.8
	c0,2.2,1,3.6,1.9,3.6c0.4,0,0.7-0.2,1-0.6c0.2-0.3,0.3-0.7,0.5-0.7c0.1,0,0.2,0.1,0.2,0.2c0,0.2-0.1,0.5-0.3,0.8
	c-0.5,0.7-1.1,1.1-1.9,1.1c-1.6,0-2.9-1.7-2.9-3.9c0-2.3,1.4-3.9,3.2-3.9c0.8,0,1.3,0.2,1.5,0.3c0.1,0.1,0.1,0.3,0.1,0.6V21.6"/>
<path class="st3" d="M211.6,23.4c-0.5,0-0.5,0-0.5,0.5c0,1.9,0.8,3.1,2,3.1c0.5,0,1-0.2,1.3-0.6c0.3-0.3,0.3-0.7,0.5-0.7
	c0.1,0,0.2,0.1,0.2,0.2c0,0.7-1,1.9-2.5,1.9c-1.6,0-2.9-1.6-2.9-3.8c0-2.5,1.3-4.1,3.1-4.1c1.4,0,2.3,1,2.3,2.8c0,0.6,0,0.6-0.7,0.6
	H211.6 M211.6,21c-0.4,0.6-0.5,1.3-0.5,1.6c0,0.3,0.2,0.4,0.7,0.4c1.6,0,1.9-0.1,1.9-1c0-1.1-0.4-1.7-1-1.7
	C212.2,20.3,211.9,20.5,211.6,21"/>
<path class="st3" d="M164.8,41.7c-0.4,0.6-1.4,1-2.4,1c-1.2,0-2.1-0.5-2.9-1.5c-0.8-1-1.2-2.3-1.2-3.9c0-3.2,1.8-5.3,4.2-5.3
	c1.2,0,2,0.3,2.2,0.5c0.1,0.1,0.1,0.3,0.1,0.6l0,1.2c0,0.3,0,0.4,0,0.4c0,0.2-0.1,0.3-0.3,0.3c-0.4,0-0.5-0.4-0.7-1
	c-0.4-1.1-0.7-1.5-1.5-1.5c-1.4,0-2.3,1.5-2.3,4.4c0,3.5,1,5.4,2.4,5.4c0.8,0,1-0.4,1-1.4v-2.2c0-0.4,0-0.6-0.3-0.7
	c-0.4-0.1-0.7,0-0.7-0.3c0-0.2,0.2-0.2,0.6-0.2c0.2,0,0.6,0,1.2,0c0.7,0,1.1,0,1.2,0c0.2,0,0.3,0.1,0.3,0.2c0,0.2-0.2,0.2-0.4,0.3
	c-0.3,0.1-0.4,0.2-0.4,0.7V41C165,41.3,164.9,41.6,164.8,41.7"/>
<path class="st3" d="M167.3,36.6c0-0.3,0-0.4-0.3-0.5c-0.2,0-0.4,0-0.4-0.1c0-0.2,0.3-0.3,0.8-0.5c0.6-0.3,0.9-0.6,1-0.6
	c0.1,0,0.1,0.1,0.1,0.2v1.1c0,0,0.1,0.1,0.1,0.1c0.1,0,0.2-0.2,0.5-0.6c0.4-0.5,0.8-0.7,1.2-0.7c0.6,0,1,0.4,1,1.1
	c0,0.6-0.3,0.9-0.7,0.9c-0.4,0-0.6-0.2-0.7-0.6c0-0.2,0-0.4-0.2-0.4c-0.6,0-1,0.9-1,2.4v3.1c0,0.4,0.1,0.6,0.3,0.7
	c0.2,0,0.4,0,0.4,0.2c0,0.1-0.1,0.2-0.2,0.2c-0.1,0-0.4,0-1.1,0c-0.7,0-1.1,0-1.2,0c-0.2,0-0.3-0.1-0.3-0.2c0-0.2,0.2-0.2,0.4-0.3
	c0.2-0.1,0.3-0.3,0.3-0.7V36.6"/>
<path class="st3" d="M174.9,34.9c1.6,0,3,1.6,3,3.9c0,1.1-0.3,2.1-0.9,2.8c-0.6,0.7-1.3,1.1-2,1.1c-0.6,0-1.4-0.3-2-1
	c-0.7-0.7-1.1-1.7-1.1-3C171.9,36.6,173.3,34.9,174.9,34.9 M176.4,38.9c0-2.3-0.7-3.6-1.5-3.6c-0.9,0-1.5,1.3-1.5,3.5
	c0,2.2,0.7,3.5,1.5,3.5C175.8,42.3,176.4,41,176.4,38.9"/>
<path class="st3" d="M179.5,36.4c0-0.5,0-0.7-0.3-0.9c-0.2-0.1-0.6,0-0.6-0.2c0-0.2,0.2-0.2,0.6-0.2c0.1,0,0.3,0,0.5,0
	c0.1,0,0.3,0,0.7,0c0.3,0,0.4,0.1,0.4,0.4v4.9c0,1.1,0.3,1.7,1.2,1.7c1.1,0,1.5-0.6,1.5-1.9v-4c0-0.4-0.1-0.6-0.3-0.7
	c-0.2,0-0.4,0-0.4-0.2c0-0.1,0.1-0.2,0.2-0.2c0.1,0,0.3,0,0.4,0c0.3,0,0.6,0,1,0c0.4,0,0.5,0.1,0.5,0.4V41c0,0.3,0,0.4,0.3,0.5
	c0.2,0,0.4,0,0.4,0.1c0,0.2-0.3,0.3-0.8,0.5c-0.6,0.3-0.9,0.6-1,0.6c-0.1,0-0.1-0.1-0.1-0.2v-0.8c0,0-0.1-0.1-0.1-0.1
	c-0.1,0-0.2,0.2-0.5,0.4c-0.5,0.4-1,0.7-1.7,0.7c-1.5,0-2-0.9-2-2.6V36.4"/>
<path class="st3" d="M189.1,45.7c0.5,0.1,0.7,0,0.7,0.2c0,0.1-0.1,0.2-0.2,0.2c-0.1,0-0.6,0-1.5,0c-0.8,0-1.2,0-1.3,0
	c-0.2,0-0.3-0.1-0.3-0.2c0-0.1,0.1-0.2,0.3-0.2h0.1c0.4,0,0.5-0.3,0.5-0.8v-8.2c0-0.3,0-0.4-0.3-0.5c-0.3,0-0.6,0-0.6-0.2
	c0-0.2,0.3-0.2,0.8-0.4c0.7-0.3,1-0.7,1.2-0.7c0.1,0,0.1,0.1,0.1,0.2v0.5c0,0.2,0,0.3,0.1,0.3c0.1,0,0.2-0.1,0.5-0.4
	c0.4-0.4,0.8-0.6,1.3-0.6c1.3,0,2.5,1.5,2.5,3.7c0,2.4-1.4,4-2.9,4c-0.5,0-1-0.1-1.5-0.5v2.6C188.6,45.5,188.6,45.7,189.1,45.7
	 M188.6,39.9c0,1.6,0.3,2.4,1.2,2.4c1,0,1.6-1.1,1.6-3.3c0-2.1-0.7-3.2-1.7-3.2c-0.9,0-1.1,0.6-1.1,1.8V39.9z"/>
<g>
	<path class="st3" d="M88.3,65.3h0.5l1.3-3.7h-0.6v-0.8h3v0.8H92l1.3,3.7h0.5v0.8h-2.1v-0.8h0.6L92,64.4h-2l-0.3,0.9h0.7v0.8h-2.1
		V65.3z M91.8,63.7L91,61.6l-0.8,2.1H91.8z"/>
	<path class="st3" d="M95.4,64.2v-2.6h-0.6v-0.8h2.2v0.8h-0.6v2.5c0,0.8,0.4,1.3,1.1,1.3c0.7,0,1.1-0.4,1.1-1.2v-2.6h-0.6v-0.8h2.1
		v0.8h-0.6v2.6c0,1.4-0.8,2.1-2,2.1C96.2,66.2,95.4,65.6,95.4,64.2z"/>
	<path class="st3" d="M102.6,65.3h0.7v-3.7h-1v0.8h-0.9v-1.6h4.7v1.6h-0.9v-0.8h-1v3.7h0.7v0.8h-2.3V65.3z"/>
	<path class="st3" d="M107.5,63.4c0-1.6,1.1-2.8,2.8-2.8c1.6,0,2.7,1.2,2.7,2.8c0,1.6-1.1,2.8-2.8,2.8
		C108.6,66.2,107.5,65,107.5,63.4z M112,63.4c0-1.1-0.8-1.9-1.8-1.9c-1,0-1.8,0.8-1.8,1.9c0,1.1,0.8,1.9,1.8,1.9
		C111.3,65.4,112,64.6,112,63.4z"/>
	<path class="st3" d="M120.2,60.2h0.8v7.6h-0.8V60.2z"/>
	<path class="st3" d="M128,65.3h0.6v-3.7H128v-0.8h2.2v0.8h-0.7V63h2.5v-1.4h-0.7v-0.8h2.2v0.8H133v3.7h0.6v0.8h-2.2v-0.8h0.7v-1.5
		h-2.5v1.5h0.7v0.8H128V65.3z"/>
	<path class="st3" d="M135.1,63.4c0-1.6,1.1-2.8,2.8-2.8c1.6,0,2.7,1.2,2.7,2.8c0,1.6-1.1,2.8-2.8,2.8
		C136.2,66.2,135.1,65,135.1,63.4z M139.6,63.4c0-1.1-0.8-1.9-1.8-1.9c-1,0-1.8,0.8-1.8,1.9c0,1.1,0.8,1.9,1.8,1.9
		C138.9,65.4,139.6,64.6,139.6,63.4z"/>
	<path class="st3" d="M142,65.3h0.6l0.2-3.7h-0.7v-0.8h1.5l1.6,3l1.6-3h1.5v0.8h-0.7l0.2,3.7h0.6v0.8h-2.2v-0.8h0.6l-0.1-2.8
		l-1.5,2.7h-0.1l-1.5-2.7l-0.1,2.8h0.6v0.8H142V65.3z"/>
	<path class="st3" d="M150,65.3h0.6v-3.7H150v-0.8h4v1.5h-0.9v-0.7h-1.6V63h1.6v0.8h-1.6v1.5h1.6v-0.7h0.9v1.5h-4V65.3z"/>
	<path class="st3" d="M161.2,60.2h0.8v7.6h-0.8V60.2z"/>
	<path class="st3" d="M169.1,65.3h0.6v-3.7h-0.6v-0.8h2.1c1.2,0,2.1,0.5,2.1,1.6c0,0.7-0.4,1.2-1,1.5l0.8,1.5h0.6v0.8h-1.2l-1.1-2
		c-0.1,0-0.2,0-0.3,0c-0.2,0-0.3,0-0.4,0v1.2h0.7v0.8h-2.2V65.3z M172.4,62.4c0-0.6-0.5-0.8-1.2-0.8h-0.5v1.7c0.1,0,0.2,0,0.5,0
		C171.9,63.3,172.4,63,172.4,62.4z"/>
	<path class="st3" d="M175.3,65.3h0.6v-3.7h-0.6v-0.8h4v1.5h-0.9v-0.7h-1.6V63h1.6v0.8h-1.6v1.5h1.6v-0.7h0.9v1.5h-4V65.3z"/>
	<path class="st3" d="M182.4,62.4v2.9h0.7v0.8h-2.2v-0.8h0.6v-3.7h-0.6v-0.8h1.4l2.6,3.4v-2.5h-0.7v-0.8h2.2v0.8h-0.6v4.6l-0.5,0
		L182.4,62.4z"/>
	<path class="st3" d="M189.1,65.3h0.7v-3.7h-1v0.8h-0.9v-1.6h4.7v1.6h-0.9v-0.8h-1v3.7h0.7v0.8h-2.3V65.3z"/>
	<path class="st3" d="M194,65.3h0.6v-3.7H194v-0.8h4v1.5h-0.9v-0.7h-1.6V63h1.6v0.8h-1.6v1.5h1.6v-0.7h0.9v1.5h-4V65.3z"/>
	<path class="st3" d="M199.7,65.3h0.6v-3.7h-0.6v-0.8h2.1c1.2,0,2.1,0.5,2.1,1.6c0,0.7-0.4,1.2-1,1.5l0.8,1.5h0.6v0.8H203l-1.1-2
		c-0.1,0-0.2,0-0.3,0c-0.2,0-0.3,0-0.4,0v1.2h0.7v0.8h-2.2V65.3z M202.9,62.4c0-0.6-0.5-0.8-1.2-0.8h-0.5v1.7c0.1,0,0.2,0,0.5,0
		C202.4,63.3,202.9,63,202.9,62.4z"/>
	<path class="st3" d="M205.8,65c0-0.4,0.2-0.6,0.6-0.6c0.4,0,0.6,0.3,0.6,0.5c0,0.1,0,0.2-0.1,0.3c0.2,0.1,0.5,0.2,0.8,0.2
		c0.6,0,1-0.3,1-0.7c0-0.4-0.4-0.7-1-0.8c-1-0.4-1.7-0.7-1.7-1.7c0-0.9,0.7-1.5,1.8-1.5c1,0,1.8,0.5,1.8,1.2c0,0.4-0.2,0.6-0.5,0.6
		c-0.4,0-0.6-0.3-0.6-0.5c0-0.1,0-0.2,0.1-0.3c-0.1-0.1-0.4-0.2-0.7-0.2c-0.5,0-0.8,0.3-0.8,0.7c0,0.4,0.4,0.6,1,0.8
		c1,0.3,1.7,0.7,1.7,1.7c0,1-0.8,1.6-1.9,1.6C206.6,66.2,205.8,65.6,205.8,65z"/>
</g>
<path class="st4" d="M75.8,72H224 M75.8,55.1H224"/>
</svg>
